***************************** TPB IS BENEDICTION TO ME ****************************
*                                                                                 *
*										  *
*	        *                       *                       *	          *
*              ***                     ***                     ***                *
*	      *****                   *****                   *****		  *
*            *******                 *******                 *******		  *
*           *********		    *********               *********             *
*          ***********	           ***********             *********** 		  *
*         *************           *************           *************           *
*        ***************         ***************         ***************	  *
*       *****************       *****************       *****************         *
*      *******************     *******************     *******************        *
*     *** TPB IS D BEST ***   *** TPB IS D BEST ***   *** TPB IS D BEST *** 	  *
*      *******************     *******************     *******************	  *
*       *****************       *****************       *****************         *
*        ***************         ***************         ***************          *
*         *************           *************           *************	 	  *
*          ***********             ***********             ***********            *
*           *********               *********               *********             *
*            *******                 *******                 *******              *
*             *****                   *****		      *****               *
*	       ***                     ***                     ***                *
*	        *                       *                       *                 *
*										  *
*										  *
***************************** TPB IS BENEDICTION TO ME ****************************


Screen Link :---

 
http://www.shotpix.com/images/96771799463732447305.jpg



General Info :---


Format                           : Matroska
File size                        : 9.96 MiB
Duration                         : 3mn 3s
Overall bit rate                 : 456 Kbps
Movie name                       : P
Encoded date                     : UTC 2011-06-22 01:15:43
Writing application              : mkvmerge v4.6.0 ('Still Crazy After All These Years') built on Mar 10 2011 02:50:32
Writing library                  : libebml v1.2.0 + libmatroska v1.1.0

Video
ID                               : 1
Format                           : AVC
Format/Info                      : Advanced Video Codec
Format profile                   : High@L4.0
Format settings, CABAC           : Yes
Format settings, ReFrames        : 3 frames
Codec ID                         : V_MPEG4/ISO/AVC
Duration                         : 3mn 3s
Bit rate mode                    : Variable
Bit rate                         : 327 Kbps
Maximum bit rate                 : 25.0 Mbps
Width                            : 480 pixels
Height                           : 360 pixels
Display aspect ratio             : 4:3
Frame rate                       : 23.976 fps
Color space                      : YUV
Chroma subsampling               : 4:2:0
Bit depth                        : 8 bits
Scan type                        : Progressive
Bits/(Pixel*Frame)               : 0.079
Stream size                      : 6.97 MiB (70%)

Audio
ID                               : 2
Format                           : MPEG Audio
Format version                   : Version 1
Format profile                   : Layer 2
Codec ID                         : A_MPEG/L2
Codec ID/Hint                    : MP2
Duration                         : 3mn 3s
Bit rate mode                    : Constant
Bit rate                         : 128 Kbps
Channel(s)                       : 2 channels
Sampling rate                    : 44.1 KHz
Compression mode                 : Lossy
Stream size                      : 2.79 MiB (28%)



***************************** TPB IS BENEDICTION TO ME ****************************
*                                                                                 *
*										  *
*	        *                       *                       *	          *
*              ***                     ***                     ***                *
*	      *****                   *****                   *****		  *
*            *******                 *******                 *******		  *
*           *********		    *********               *********             *
*          ***********	           ***********             *********** 		  *
*         *************           *************           *************           *
*        ***************         ***************         ***************	  *
*       *****************       *****************       *****************         *
*      *******************     *******************     *******************        *
*     *** TPB IS D BEST ***   *** TPB IS D BEST ***   *** TPB IS D BEST *** 	  *
*      *******************     *******************     *******************	  *
*       *****************       *****************       *****************         *
*        ***************         ***************         ***************          *
*         *************           *************           *************	 	  *
*          ***********             ***********             ***********            *
*           *********               *********               *********             *
*            *******                 *******                 *******              *
*             *****                   *****		      *****               *
*	       ***                     ***                     ***                *
*	        *                       *                       *                 *
*										  *
*										  *
***************************** TPB IS BENEDICTION TO ME ****************************


